<svg xmlns="http://www.w3.org/2000/svg" xmlns:xlink="http://www.w3.org/1999/xlink" width="793" zoomAndPan="magnify" viewBox="0 0 594.95996 842.24997" height="1122" preserveAspectRatio="xMidYMid meet" version="1.0"><path fill="#000000" d="M 334.464844 104.023438 C 334.222656 104.3125 333.882812 105.183594 333.738281 106.003906 C 333.640625 106.777344 332.53125 112.433594 331.277344 118.570312 C 329.054688 129.734375 328.667969 132.148438 326.351562 149.015625 C 325.675781 154.042969 324.949219 158.390625 324.757812 158.585938 C 324.5625 158.777344 323.019531 159.164062 321.28125 159.457031 C 314.132812 160.617188 303.171875 165.351562 297.085938 169.992188 C 295.398438 171.296875 292.644531 173.761719 290.90625 175.5 C 289.167969 177.289062 287.429688 178.738281 287.042969 178.691406 C 286.65625 178.691406 285.640625 177.773438 284.773438 176.5625 C 282.746094 173.808594 276.226562 168.105469 271.976562 165.351562 C 265.070312 160.90625 256.765625 157.957031 251.019531 157.957031 L 247.976562 157.957031 L 247.253906 154.429688 C 246.09375 149.066406 244.257812 133.503906 243.097656 119.054688 C 242.472656 111.851562 241.941406 105.761719 241.84375 105.425781 C 241.554688 104.3125 238.609375 104.214844 236.144531 105.230469 C 234.890625 105.8125 233.632812 106.148438 233.394531 106.003906 C 231.605469 104.84375 233.394531 123.886719 237.304688 146.648438 C 238.367188 152.835938 239.234375 158.34375 239.234375 158.972656 C 239.234375 159.9375 238.65625 160.421875 236.195312 161.535156 C 231.75 163.613281 227.9375 167.71875 224.992188 173.617188 L 222.574219 178.351562 L 222.574219 183.28125 C 222.625 187.96875 222.671875 188.355469 224.652344 192.707031 C 225.761719 195.21875 227.695312 198.796875 228.949219 200.582031 C 230.207031 202.421875 231.945312 204.835938 232.8125 206.042969 C 233.875 207.589844 234.457031 209.042969 234.695312 210.972656 C 235.371094 216.675781 233.875 235.816406 232.621094 237.121094 C 232.28125 237.457031 230.929688 238.085938 229.578125 238.472656 C 228.226562 238.859375 227.261719 239.390625 227.40625 239.632812 C 227.550781 239.828125 226.730469 240.601562 225.570312 241.226562 C 218.953125 245.144531 201.28125 259.496094 187.808594 272.011719 C 150.191406 306.90625 110.449219 361.277344 79.445312 420.238281 C 63.414062 450.683594 40.910156 501.238281 32.605469 525.449219 C 31.492188 528.640625 30.429688 531.441406 30.191406 531.734375 C 29.078125 533.085938 25.796875 542.847656 25.796875 544.78125 C 25.796875 546.714844 25.988281 547.101562 28.257812 549.132812 C 29.609375 550.386719 31.253906 551.5 31.929688 551.644531 C 32.847656 551.886719 33.039062 552.175781 32.847656 552.996094 C 31.6875 556.960938 24.976562 586.34375 23.621094 593.398438 C 22.65625 598.136719 22.851562 601.617188 24.25 604.324219 C 25.503906 606.789062 26.421875 607.558594 29.898438 609.203125 C 32.460938 610.363281 33.378906 610.507812 37.625 610.558594 L 42.457031 610.558594 L 41.585938 613.117188 C 41.101562 614.519531 40.476562 618.578125 40.1875 622.105469 C 39.703125 627.859375 39.75 628.96875 40.523438 632.304688 C 41.054688 634.429688 41.972656 636.75 42.695312 637.8125 C 44.964844 640.90625 52.304688 644.195312 61.289062 646.125 C 68.484375 647.671875 72.058594 649.703125 77.851562 655.597656 C 81.183594 658.980469 82.730469 660.914062 82.585938 661.445312 C 81.90625 663.765625 79.300781 681.890625 78.960938 686.480469 C 78.527344 692.617188 78.769531 693.441406 81.957031 696.050781 C 86.785156 700.011719 91.710938 701.171875 105.230469 701.511719 C 116.675781 701.800781 119.914062 701.414062 130.003906 698.5625 C 145.988281 694.019531 152.507812 695.421875 167.574219 706.78125 C 170.90625 709.246094 174.867188 712.046875 176.363281 712.917969 C 185.539062 718.28125 198.671875 721.519531 208.570312 720.792969 C 214.320312 720.40625 219.003906 719.101562 225.472656 716.011719 L 230.785156 713.496094 L 237.304688 713.546875 C 243.292969 713.59375 244.453125 713.738281 251.792969 715.625 C 260.484375 717.847656 265.359375 719.636719 274.246094 723.886719 C 280.621094 726.933594 283.421875 727.949219 287.71875 728.671875 C 291.292969 729.300781 297.375 729.347656 298.535156 728.769531 C 298.96875 728.527344 301.335938 727.707031 303.703125 727.027344 C 308.339844 725.628906 322.585938 718.570312 331.710938 713.160156 C 342.335938 706.828125 345.570312 705.714844 352.234375 706.152344 C 355.46875 706.34375 357.640625 706.875 362.617188 708.617188 C 374.59375 712.917969 387.921875 715.769531 396.175781 715.816406 C 399.800781 715.867188 401.777344 715.574219 405.402344 714.558594 C 410.519531 713.109375 419.742188 709.4375 425.488281 706.539062 C 436.402344 701.078125 447.027344 697.308594 451.421875 697.308594 C 455.089844 697.308594 463.976562 699.289062 469.820312 701.464844 C 473.007812 702.625 477.449219 704.023438 479.71875 704.605469 C 484.886719 705.859375 495.074219 706.34375 499.855469 705.523438 C 503.621094 704.894531 509.175781 702.527344 509.222656 701.558594 C 509.464844 697.5 508.835938 693.441406 506.519531 684.113281 C 505.070312 678.3125 503.863281 672.851562 503.863281 672.03125 C 503.863281 671.160156 503.429688 669.613281 502.996094 668.550781 L 502.125 666.617188 L 506.328125 661.738281 C 513.183594 653.859375 516.902344 650.667969 522.457031 648.011719 C 528.539062 645.0625 530.277344 644.675781 537.183594 644.628906 C 548.144531 644.628906 554.035156 643.277344 555.484375 640.570312 C 556.113281 639.457031 556.113281 638.828125 555.582031 636.316406 C 554.859375 632.691406 550.078125 617.804688 548.53125 614.328125 L 547.421875 611.863281 L 551.816406 611.523438 C 556.742188 611.136719 567.316406 609.300781 570.214844 608.285156 C 572.773438 607.414062 573.257812 606.496094 572.339844 604.46875 C 571.902344 603.550781 570.695312 599.78125 569.585938 596.058594 C 567.027344 587.117188 564.226562 579 561.230469 571.894531 C 559.878906 568.703125 557.511719 562.90625 555.96875 558.988281 L 553.070312 551.886719 L 555.195312 547.632812 C 561.667969 534.777344 563.792969 526.320312 563.742188 513.996094 C 563.742188 508.101562 563.695312 507.714844 562.246094 504.863281 C 560.363281 501.09375 553.121094 488.285156 550.703125 484.417969 C 549.738281 482.824219 548.242188 480.164062 547.421875 478.570312 C 546.601562 476.925781 544.234375 472.964844 542.15625 469.773438 C 540.082031 466.585938 535.78125 459.722656 532.644531 454.601562 C 507.628906 414.050781 473.539062 366.15625 448.234375 335.902344 L 442.054688 328.558594 L 444.515625 324.886719 L 446.929688 321.261719 L 445.09375 319.230469 C 444.082031 318.121094 438.722656 312.609375 433.121094 307.050781 C 418.054688 291.972656 398.832031 275.105469 383.765625 263.75 C 368.21875 252.054688 341.753906 235.285156 338.808594 235.285156 C 338.132812 235.285156 337.699219 234.898438 337.554688 234.171875 C 336.734375 230.210938 336.203125 225.570312 335.960938 219.433594 L 335.671875 212.328125 L 338.90625 207.785156 C 342.769531 202.273438 345.523438 197.394531 347.210938 192.949219 C 348.226562 190.289062 348.515625 188.453125 348.707031 183.8125 C 349.144531 174.726562 347.644531 170.28125 342.480469 165.253906 C 339.921875 162.742188 335.042969 159.890625 333.304688 159.890625 C 332.53125 159.890625 332.386719 159.648438 332.628906 158.539062 C 332.773438 157.8125 333.351562 154.527344 333.933594 151.191406 C 336.539062 135.4375 340.644531 114.65625 342.09375 110.113281 C 343.445312 105.617188 343.445312 105.519531 340.546875 104.84375 C 339.148438 104.503906 337.3125 104.023438 336.441406 103.828125 C 335.429688 103.585938 334.703125 103.636719 334.464844 104.023438 Z M 341.03125 107.019531 C 341.128906 107.066406 340.742188 108.710938 340.210938 110.644531 C 337.503906 120.597656 335.140625 132.777344 332.917969 148.292969 C 332.050781 154.285156 331.277344 159.214844 331.226562 159.3125 C 331.132812 159.40625 330.117188 159.3125 328.910156 159.164062 L 326.785156 158.828125 L 327.171875 157.085938 C 327.363281 156.074219 328.234375 150.515625 329.054688 144.667969 C 329.925781 138.820312 331.519531 129.152344 332.675781 123.160156 C 333.835938 117.167969 334.898438 111.175781 335.089844 109.871094 C 335.71875 104.988281 335.476562 105.277344 338.328125 106.148438 C 339.726562 106.582031 340.933594 106.96875 341.03125 107.019531 Z M 240.878906 112.625 C 242.035156 133.601562 243.484375 147.566406 245.273438 154.816406 C 245.707031 156.554688 245.996094 158.101562 245.949219 158.199219 C 245.851562 158.296875 244.933594 158.488281 243.96875 158.683594 C 242.230469 159.019531 242.183594 158.972656 241.941406 157.378906 C 241.796875 156.507812 240.878906 151 239.960938 145.148438 C 238.320312 135.339844 234.746094 108.128906 235.035156 107.9375 C 235.519531 107.550781 238.269531 106.777344 239.285156 106.777344 L 240.589844 106.730469 Z M 258.839844 161.535156 C 263.285156 163.03125 268.691406 165.738281 272.074219 168.15625 C 275.261719 170.425781 284.144531 179.125 284.144531 179.996094 C 284.144531 180.332031 283.421875 181.105469 282.601562 181.6875 C 278.449219 184.539062 276.417969 187.488281 276.417969 190.773438 C 276.417969 194.640625 279.125 195.265625 282.601562 192.125 C 283.179688 191.59375 283.664062 191.257812 283.664062 191.351562 C 283.664062 191.496094 282.550781 195.074219 281.199219 199.328125 C 279.894531 203.53125 278.640625 207.496094 278.496094 208.074219 C 278.15625 209.523438 279.074219 209.523438 280.039062 208.074219 C 281.007812 206.527344 284.917969 194.542969 285.640625 190.722656 C 285.933594 189.03125 286.367188 187.488281 286.558594 187.292969 C 286.753906 187.050781 287.285156 188.355469 287.71875 190.191406 C 289.503906 197.34375 295.011719 208.945312 297.28125 210.347656 C 298.679688 211.214844 298.921875 210.152344 297.761719 208.316406 C 296.410156 206.140625 291.582031 196.28125 291.195312 194.878906 C 290.90625 193.914062 291.003906 193.867188 292.984375 194.058594 C 294.867188 194.300781 295.203125 194.15625 296.363281 192.753906 C 298.488281 190.242188 298.003906 187.871094 294.722656 184.296875 C 293.609375 183.089844 291.96875 181.636719 291.003906 181.058594 L 289.265625 179.996094 L 292.886719 176.660156 C 299.695312 170.28125 307.277344 165.785156 315.824219 162.984375 C 319.636719 161.726562 320.796875 161.582031 326.15625 161.582031 C 331.664062 161.582031 332.433594 161.679688 334.851562 162.839844 C 338.808594 164.722656 342.285156 168.105469 344.121094 171.875 C 345.714844 175.066406 345.714844 175.113281 345.714844 182.410156 L 345.714844 189.710938 L 342.960938 195.21875 C 341.464844 198.265625 338.90625 202.613281 337.265625 204.933594 C 334.753906 208.558594 333.882812 209.425781 331.082031 210.972656 C 322.390625 215.855469 308.433594 219.382812 292.597656 220.832031 C 285.449219 221.460938 278.785156 221.171875 270.382812 219.816406 C 258.792969 217.980469 251.453125 215.515625 242.230469 210.492188 L 236.820312 207.496094 L 233.441406 202.566406 C 227.742188 194.300781 224.410156 186.035156 224.894531 181.347656 C 225.183594 178.59375 227.648438 172.792969 230.0625 169.363281 C 235.421875 161.484375 248.460938 157.957031 258.839844 161.535156 Z M 292.402344 185.503906 C 295.492188 188.597656 296.21875 191.789062 293.898438 191.789062 C 292.257812 191.789062 290.519531 189.324219 288.972656 184.730469 L 288.058594 182.121094 L 289.070312 182.652344 C 289.652344 182.945312 291.148438 184.25 292.402344 185.503906 Z M 284.097656 186.714844 C 282.695312 189.515625 280.765625 191.691406 279.558594 191.882812 C 278.738281 192.027344 278.59375 191.789062 278.640625 190.191406 C 278.738281 187.96875 279.800781 186.375 282.746094 184.101562 C 284.773438 182.558594 284.871094 182.507812 285.015625 183.523438 C 285.109375 184.054688 284.675781 185.503906 284.097656 186.714844 Z M 246.527344 215.179688 C 258.503906 220.882812 275.40625 224.214844 288.636719 223.492188 C 304.523438 222.621094 317.5625 219.578125 328.089844 214.355469 C 330.890625 213.003906 333.304688 211.796875 333.546875 211.699219 C 333.738281 211.601562 333.882812 213.101562 333.882812 215.082031 C 333.882812 220.253906 334.753906 228.757812 335.621094 232.527344 C 336.058594 234.316406 336.296875 235.960938 336.105469 236.105469 C 335.476562 236.734375 324.46875 239.777344 317.949219 241.082031 C 305.972656 243.5 299.261719 244.128906 284.871094 244.175781 C 271.203125 244.222656 265.699219 243.789062 253.964844 241.808594 C 248.074219 240.792969 236 237.988281 235.46875 237.507812 C 235.421875 237.410156 235.664062 235.378906 236.097656 233.058594 C 236.53125 230.59375 237.015625 224.746094 237.160156 219.480469 L 237.449219 210.25 L 239.71875 211.652344 C 240.972656 212.425781 244.015625 214.019531 246.527344 215.179688 Z M 339.339844 238.28125 C 340.304688 238.761719 340.210938 238.910156 337.746094 239.730469 C 333.496094 241.179688 322.632812 243.835938 315.535156 245.144531 C 302.59375 247.511719 296.023438 248.089844 280.765625 248.042969 C 266.328125 248.042969 260.628906 247.605469 250.585938 245.625 C 246.042969 244.757812 233.488281 241.613281 232.621094 241.132812 C 232.234375 240.9375 232.570312 240.503906 233.683594 239.921875 C 235.324219 239.054688 235.324219 239.054688 240.78125 240.503906 C 265.890625 247.414062 297.570312 247.945312 322.535156 241.808594 C 326.253906 240.890625 330.839844 239.632812 332.675781 238.957031 C 336.539062 237.601562 337.84375 237.457031 339.339844 238.28125 Z M 342.722656 240.214844 C 343.300781 240.503906 347.164062 242.824219 351.269531 245.335938 C 377.539062 261.476562 398.109375 277.570312 426.648438 304.199219 C 434.710938 311.738281 443.5 320.777344 443.5 321.503906 C 443.5 322.277344 435.726562 332.472656 430.898438 338.03125 C 419.066406 351.609375 392.796875 376.984375 372.273438 394.480469 C 337.214844 424.492188 297.957031 450.976562 251.066406 476.203125 C 215.382812 495.4375 176.605469 511.53125 137.683594 523.324219 C 112.425781 530.960938 74.519531 539.464844 52.835938 542.363281 C 46.464844 543.234375 29.128906 544.734375 28.886719 544.441406 C 28.5 544.105469 36.03125 522.550781 40.136719 512.257812 C 48.976562 489.832031 61.335938 462.476562 74.375 436.332031 C 93.933594 397.136719 112.8125 366.351562 137.152344 333.875 C 153.90625 311.546875 163.664062 300.1875 181.238281 282.597656 C 197.417969 266.40625 212.773438 253.214844 224.894531 245.09375 L 229.625 241.953125 L 232.621094 242.773438 C 234.261719 243.210938 235.757812 243.691406 235.953125 243.835938 C 236.144531 243.933594 232.71875 247.558594 228.324219 251.859375 C 210.070312 269.644531 197.222656 285.402344 180.5625 310.433594 C 165.835938 332.519531 153.136719 354.65625 155.210938 354.65625 C 155.886719 354.65625 158.300781 351.273438 160.765625 346.921875 C 169.457031 331.410156 186.070312 305.941406 196.933594 291.488281 C 208.089844 276.652344 215.332031 268.292969 229.675781 253.84375 L 238.800781 244.609375 L 243.390625 245.722656 C 245.898438 246.351562 248.941406 246.980469 250.148438 247.171875 C 252.855469 247.558594 252.949219 247.027344 248.121094 258.09375 C 238.027344 281.003906 231.945312 299.222656 225.230469 326.382812 C 218.761719 352.675781 215.140625 370.652344 214.753906 378.675781 C 214.609375 381.671875 214.609375 384.136719 214.753906 384.136719 C 215.332031 384.136719 216.589844 379.207031 217.941406 371.570312 C 219.824219 361.324219 223.445312 345.085938 227.695312 327.929688 C 234.648438 299.996094 239.476562 285.109375 249.859375 259.929688 C 252.226562 254.132812 254.207031 249.007812 254.207031 248.621094 C 254.207031 248.042969 254.496094 247.898438 255.316406 248.089844 C 257.585938 248.574219 264.007812 249.300781 269.03125 249.589844 C 273.90625 249.878906 274.246094 249.976562 274.34375 250.941406 C 274.34375 251.472656 274.96875 254.664062 275.597656 258 C 277.917969 269.355469 278.0625 272.398438 278.15625 310.242188 C 278.207031 333.585938 278.398438 346.101562 278.738281 346.679688 C 279.75 348.519531 280.039062 339.722656 280.039062 307.777344 C 280.039062 272.835938 279.800781 268.242188 277.09375 256.355469 C 276.46875 253.457031 275.9375 250.84375 275.9375 250.554688 C 275.9375 250.167969 276.5625 250.023438 277.625 250.167969 C 279.460938 250.410156 297.328125 249.445312 300.226562 248.960938 C 301.867188 248.71875 302.011719 248.765625 302.011719 249.832031 C 302.011719 250.457031 304.425781 255.96875 307.371094 262.105469 C 318.816406 285.980469 322.585938 294.488281 327.125 306.808594 C 328.621094 310.964844 330.261719 314.976562 330.695312 315.75 L 331.519531 317.199219 L 331.277344 314.011719 C 330.695312 306.375 322.4375 286.171875 309.402344 260.511719 C 305.394531 252.632812 303.605469 248.71875 304.039062 248.621094 C 304.378906 248.527344 307.710938 247.945312 311.429688 247.367188 C 318.671875 246.253906 332.433594 242.871094 337.988281 240.890625 C 339.871094 240.261719 341.417969 239.679688 341.511719 239.679688 C 341.609375 239.632812 342.140625 239.875 342.722656 240.214844 Z M 442.824219 333.148438 C 445.386719 335.902344 460.886719 355.378906 468.175781 365.046875 C 485.417969 388.003906 508.160156 420.816406 524.726562 446.769531 C 534.960938 462.765625 550.367188 488.769531 552.734375 493.890625 C 553.410156 495.390625 555.292969 498.722656 556.933594 501.332031 C 558.574219 503.894531 559.878906 506.214844 559.878906 506.457031 C 559.878906 506.988281 558.574219 506.988281 548.773438 506.410156 C 527.285156 505.101562 509.03125 502.398438 484.789062 496.9375 C 438.191406 486.496094 364.886719 463.78125 313.890625 444.113281 C 312.539062 443.582031 312.683594 443.484375 322.585938 436.667969 C 355.179688 414.390625 382.414062 391.628906 411.390625 362.628906 C 425.101562 348.953125 431.476562 342.089844 437.320312 334.792969 C 439.253906 332.375 440.894531 330.589844 440.992188 330.878906 C 441.085938 331.167969 441.90625 332.183594 442.824219 333.148438 Z M 320.554688 450.058594 C 361.410156 465.617188 416.75 483.210938 460.402344 494.519531 C 483.195312 500.414062 508.789062 505.539062 524.628906 507.375 L 529.699219 507.953125 L 532.304688 512.257812 C 535.300781 517.234375 541.144531 530.234375 549.015625 549.421875 C 552.105469 557.007812 556.402344 567.300781 558.527344 572.378906 C 560.652344 577.402344 564.175781 586.972656 566.445312 593.546875 L 570.457031 605.53125 L 569.199219 606.015625 C 566.640625 606.980469 555.484375 608.382812 546.695312 608.867188 C 539.597656 609.203125 537.230469 609.542969 535.058594 610.363281 C 529.699219 612.34375 525.402344 616.453125 518.15625 626.503906 C 516.804688 628.34375 514.824219 630.371094 513.570312 631.191406 C 510.625 633.03125 505.890625 634.480469 501.402344 634.816406 C 494.785156 635.300781 479.816406 632.933594 477.0625 630.953125 C 475.664062 629.9375 475.179688 629.886719 464.75 629.9375 C 455.234375 629.984375 452.964844 630.128906 446.640625 631.242188 C 437.804688 632.835938 434.808594 633.804688 428.144531 637.234375 C 403.808594 649.800781 402.648438 650.234375 395.261719 649.75 C 387.339844 649.316406 379.808594 647.191406 368.796875 642.40625 C 361.070312 639.070312 358.558594 638.347656 354.40625 638.347656 C 348.273438 638.347656 345.136719 639.652344 332.144531 647.671875 C 318.527344 656.082031 313.023438 658.691406 303.460938 661.300781 C 297.8125 662.847656 289.214844 663.378906 283.082031 662.558594 C 277.386719 661.785156 272.941406 660.238281 262.851562 655.503906 C 247.6875 648.300781 239.960938 646.175781 227.597656 645.738281 C 218.808594 645.449219 216.539062 645.886719 210.746094 649.171875 C 206.109375 651.828125 203.742188 652.652344 198.480469 653.570312 C 186.988281 655.503906 177.28125 653.328125 166.078125 646.273438 C 147.628906 634.671875 133.238281 630.953125 120.445312 634.480469 C 101.417969 639.699219 96.734375 640.425781 90.648438 639.167969 C 85.144531 637.960938 82.054688 636.21875 77.660156 631.773438 C 74.230469 628.34375 73.3125 626.988281 70.269531 620.996094 C 68 616.597656 66.261719 613.84375 65.34375 613.214844 C 60.710938 609.878906 53.660156 608.382812 42.40625 608.382812 C 33.667969 608.382812 31.929688 608.09375 29.273438 606.109375 C 27.148438 604.515625 26.277344 603.066406 25.503906 599.78125 C 24.878906 597.121094 24.925781 596.734375 27.246094 586.632812 C 28.546875 580.929688 30.480469 572.328125 31.589844 567.542969 C 32.699219 562.757812 34.246094 556.089844 35.066406 552.660156 L 36.515625 546.519531 L 39.269531 546.519531 C 43.082031 546.519531 54.046875 545.3125 61.144531 544.105469 C 110.0625 535.839844 149.320312 524.820312 193.265625 507.085938 C 228.128906 492.972656 273.523438 469.195312 303.945312 449.042969 C 306.457031 447.398438 308.820312 446.046875 309.207031 445.996094 C 309.546875 445.996094 314.664062 447.832031 320.554688 450.058594 Z M 546.359375 509.308594 C 550.222656 509.550781 555.050781 509.792969 557.078125 509.792969 L 560.796875 509.792969 L 561.136719 512.546875 C 561.570312 516.074219 560.605469 524.820312 559.203125 530.332031 C 557.996094 535.066406 554.90625 543.089844 552.972656 546.519531 L 551.71875 548.648438 L 550.703125 546.28125 C 550.125 544.925781 548.578125 541.253906 547.226562 538.0625 C 544.039062 530.332031 536.796875 515.589844 534.335938 511.820312 C 533.222656 510.179688 532.355469 508.679688 532.355469 508.488281 C 532.355469 508.339844 533.949219 508.390625 535.878906 508.535156 C 537.761719 508.726562 542.496094 509.066406 546.359375 509.308594 Z M 33.910156 548.9375 L 33.425781 550.871094 L 31.542969 549.371094 C 30.480469 548.550781 29.660156 547.679688 29.660156 547.4375 C 29.660156 547.199219 30.722656 547.003906 32.023438 547.003906 L 34.390625 547.003906 Z M 53.320312 611.28125 C 55.832031 611.8125 59.210938 612.875 60.855469 613.699219 L 63.894531 615.195312 L 66.84375 620.949219 C 72.972656 633.03125 79.398438 638.636719 89.296875 640.519531 C 96.445312 641.921875 100.984375 641.4375 115.371094 637.765625 C 124.113281 635.542969 130.585938 634.960938 135.511719 635.882812 C 143.089844 637.332031 154.054688 642.019531 162.695312 647.527344 C 168.589844 651.25 173.03125 653.375 178.679688 655.066406 C 187.082031 657.582031 201.039062 656.953125 206.785156 653.859375 C 215.71875 649.027344 218.859375 648.203125 226.730469 648.640625 C 237.546875 649.269531 246.867188 651.925781 259.613281 657.96875 C 271.15625 663.476562 276.5625 665.214844 283.902344 665.894531 C 298.777344 667.246094 312.636719 662.945312 331.757812 651.054688 C 341.949219 644.726562 346.632812 642.453125 350.640625 641.730469 C 355.324219 640.90625 357.738281 641.4375 366.867188 645.304688 C 379.179688 650.574219 388.691406 652.941406 397.144531 652.941406 C 402.457031 652.941406 406.558594 651.394531 421.289062 643.660156 C 428.339844 639.941406 435.050781 636.605469 436.210938 636.171875 C 437.417969 635.785156 440.75 635.011719 443.597656 634.480469 C 459.292969 631.675781 466.535156 631.773438 480.203125 635.203125 C 487.058594 636.894531 491.886719 637.523438 498.308594 637.574219 C 503.042969 637.574219 504.734375 637.378906 507.726562 636.460938 C 514.777344 634.285156 516.46875 632.980469 522.457031 625.054688 C 529.746094 615.390625 533.5625 612.730469 541.144531 612.007812 L 544.863281 611.667969 L 545.632812 613.503906 C 547.46875 617.902344 553.167969 637.425781 553.023438 638.878906 C 552.828125 641.050781 551.910156 641.246094 540.082031 641.730469 C 534.625 641.96875 529.3125 642.40625 528.25 642.695312 C 527.1875 643.035156 523.953125 644.433594 521.007812 645.835938 C 515.113281 648.738281 511.832031 651.296875 506.519531 657.386719 C 498.019531 667.148438 493.386719 670.871094 487.542969 672.660156 C 482.035156 674.351562 476.339844 673.769531 467.355469 670.484375 C 458.859375 667.34375 457.988281 667.199219 450.503906 667.488281 C 438.816406 668.019531 434.179688 669.277344 425.777344 674.449219 C 418.390625 678.992188 413.609375 681.117188 406.511719 683.097656 C 394.921875 686.289062 387.050781 685.851562 377.394531 681.457031 C 365.417969 675.945312 356.097656 674.398438 347.597656 676.527344 C 343.542969 677.539062 336.828125 680.683594 329.488281 685.078125 C 317.707031 692.039062 307.132812 696.484375 299.117188 697.789062 C 292.546875 698.902344 284.484375 697.453125 273.039062 693.152344 C 264.492188 689.960938 255.992188 687.59375 251.550781 687.207031 C 246.09375 686.722656 238.558594 687.351562 231.269531 688.898438 C 225.8125 690.058594 223.878906 690.25 216.78125 690.25 C 210.890625 690.25 207.363281 690.007812 204.324219 689.429688 C 195.4375 687.640625 186.164062 683.484375 178.390625 677.734375 C 164.339844 667.390625 160.136719 665.941406 144.007812 665.554688 C 132.707031 665.265625 128.167969 665.652344 117.0625 667.875 C 108.179688 669.664062 104.941406 669.613281 98.617188 667.441406 C 92.242188 665.3125 88.863281 662.847656 83.453125 656.371094 C 76.160156 647.671875 71.476562 644.726562 62.542969 643.128906 C 56.554688 642.066406 48.589844 639.699219 46.269531 638.296875 C 44.484375 637.1875 44 636.269531 42.9375 631.339844 C 41.925781 626.796875 42.117188 619.207031 43.46875 613.792969 L 44.289062 610.316406 L 46.511719 610.316406 C 47.71875 610.316406 50.808594 610.75 53.320312 611.28125 Z M 92.433594 668.550781 C 93.644531 669.132812 96.445312 670.242188 98.714844 670.96875 C 104.316406 672.804688 109.675781 672.804688 118.511719 671.066406 C 128.410156 669.132812 134.0625 668.648438 144.589844 668.9375 C 155.164062 669.226562 157.964844 669.757812 164.144531 672.660156 C 166.269531 673.675781 170.421875 676.234375 173.320312 678.410156 C 183.074219 685.5625 190.945312 689.621094 199.398438 691.75 C 210.359375 694.550781 219.582031 694.550781 232.957031 691.847656 C 243.050781 689.816406 249.085938 689.234375 253.046875 690.058594 C 257.828125 691.023438 265.746094 693.441406 272.121094 695.855469 C 279.414062 698.660156 286.800781 700.546875 291.773438 700.980469 C 301.09375 701.753906 312.683594 697.839844 329.777344 688.171875 C 340.160156 682.277344 341.851562 681.40625 345.617188 680.148438 C 354.503906 677.203125 362.617188 678.21875 375.65625 684.015625 C 385.3125 688.316406 394.246094 689.140625 403.902344 686.722656 C 413.660156 684.257812 418.875 682.035156 427.371094 676.863281 C 429.789062 675.367188 432.492188 673.867188 433.457031 673.480469 C 436.453125 672.222656 441.617188 671.257812 448.425781 670.726562 C 456.105469 670.050781 457.84375 670.339844 465.375 673.144531 C 472.234375 675.753906 477.449219 676.71875 482.710938 676.429688 C 486.429688 676.1875 487.492188 675.898438 491.113281 674.15625 C 493.433594 673.046875 496.089844 671.5 497.101562 670.726562 C 500 668.40625 499.757812 668.117188 501.691406 676.527344 C 502.125 678.507812 503.234375 682.519531 504.105469 685.464844 C 505.988281 691.75 507.050781 695.808594 507.4375 698.613281 L 507.726562 700.640625 L 505.121094 701.609375 C 496.714844 704.75 485.320312 703.832031 471.507812 698.949219 C 463.492188 696.097656 454.464844 694.214844 450.261719 694.550781 C 444.613281 695.035156 438.960938 697.066406 428.289062 702.382812 C 422.738281 705.183594 417.90625 707.457031 417.617188 707.457031 C 417.328125 707.457031 415.878906 707.988281 414.480469 708.617188 C 413.03125 709.246094 409.359375 710.453125 406.320312 711.371094 C 401.777344 712.675781 399.945312 712.917969 396.417969 712.917969 C 389.222656 712.867188 377.632812 710.550781 368.84375 707.40625 C 358.027344 703.589844 356.289062 703.105469 353.25 702.816406 C 346.34375 702.140625 340.691406 704.023438 329.539062 710.644531 C 309.0625 722.824219 300.855469 726.304688 292.597656 726.304688 C 288.347656 726.304688 284.726562 725.191406 274.390625 720.699219 C 270.335938 718.910156 265.410156 716.832031 263.527344 716.105469 C 258.503906 714.078125 245.851562 710.984375 239.960938 710.308594 C 233.296875 709.535156 229.964844 710.113281 223.492188 713.253906 C 216.007812 716.929688 212.242188 717.847656 204.707031 717.796875 C 199.492188 717.796875 197.5625 717.558594 193.121094 716.445312 C 185.730469 714.609375 178.488281 710.984375 171.097656 705.425781 C 163.46875 699.773438 157.625 696.292969 153.183594 694.84375 C 150.140625 693.828125 148.742188 693.683594 142.898438 693.730469 C 137.007812 693.730469 135.511719 693.925781 131.308594 695.082031 C 118.851562 698.613281 111.558594 699.578125 101.949219 699.046875 C 91.710938 698.46875 86.542969 697.015625 82.921875 693.777344 L 81.039062 692.039062 L 81.378906 688.027344 C 81.617188 685.804688 82.34375 679.328125 83.117188 673.578125 L 84.417969 663.136719 L 87.363281 665.3125 C 88.957031 666.472656 91.226562 667.921875 92.433594 668.550781 Z M 92.433594 668.550781 " fill-opacity="1" fill-rule="nonzero"/><path fill="#000000" d="M 331.953125 243.449219 C 331.953125 243.644531 334.703125 247.074219 338.035156 251.039062 C 349.867188 265.054688 367.011719 289.121094 380.097656 310.191406 C 382.464844 314.058594 385.457031 318.84375 386.664062 320.824219 C 389.175781 324.886719 390.769531 326.867188 391.15625 326.527344 C 391.589844 326.09375 389.078125 320.003906 386.953125 316.378906 C 379.808594 304.007812 362.859375 278.34375 354.457031 267.179688 C 344.316406 253.648438 334.898438 243.015625 333.015625 243.015625 C 332.433594 243.015625 331.953125 243.210938 331.953125 243.449219 Z M 331.953125 243.449219 " fill-opacity="1" fill-rule="nonzero"/></svg>