<?xml version="1.0" encoding="utf-8"?>

<!DOCTYPE svg PUBLIC "-//W3C//DTD SVG 1.1//EN" "http://www.w3.org/Graphics/SVG/1.1/DTD/svg11.dtd">
<svg version="1.1" id="Layer_1" xmlns="http://www.w3.org/2000/svg" xmlns:xlink="http://www.w3.org/1999/xlink" x="0px" y="0px"
	 viewBox="-26.321 -20.3714 1972.6421 1526.7428" enable-background="new -26.321 -20.3714 1972.6421 1526.7428"
	 xml:space="preserve">
<g>
	<path fill="#090808" d="M280.76,36.37c-6.16-10.26-12.31-20.53-18.3-30.89c4.96,7.94,10.61,15.42,15.78,23.23
		c37.93,56.58,75.35,113.5,112.81,170.38c13.99,20.87,26.76,42.53,40.36,63.65c62.63,99.06,125.12,198.22,189.53,296.13
		c20.34,31.51,41.26,62.64,62.26,93.72c16.34,24.3,32.54,48.71,49.48,72.6c27.08,38.88,54.08,77.81,81.82,116.22
		c31.86,44.41,64.56,88.34,101.29,128.89c12.69,13.58,25.18,27.41,39.11,39.77c3.3,2.99,6.25,6.44,10.09,8.79
		c4.2,2.75,7.4,6.67,10.98,10.13c45.16,38.55,98.4501,68.95,156.8101,81.72c5.96,1.14,11.88,2.6901,17.97,2.99
		c8.85,2.5901,18.17,2.1901,27.22,3.62c13.01,0.53,26.05,0.3401,39.0801,0.29c3.7,0.15,7.1899-1.4299,10.8999-1.26
		c5.9501,0.09,11.9401,0.04,17.8-1.24c22.21-2.6799,44.13-7.5,65.78-13.12c22.1899-5.88,44.23-12.64,65.25-21.95
		c11.1599-5.0801,22.0599-10.9601,31.64-18.67c5.64-4.88,11.2-10.39,13.6899-17.61c1.22-5.23,0.61-10.96-2.51-15.45
		c-5.9199-8.79-15.01-14.7701-24.28-19.5601c-19.25-9.7-40.3199-15.07-61.36-19.24c-4.85-1.72-10.01-0.8-15.02-1
		c-3.6599,0.32-6.25-3.3-9.87-3.04c-5.35,0.15-10.59-0.95-15.8899-1.28c-5.6901-1.1-11.5-0.5-17.2301-0.99
		c-7.75-1.35-15.6499-0.48-23.46-1.05c-6.86-1-13.8199-0.33-20.6899-1.08c11.6899-1,23.47-0.61,35.2-0.79
		c14.4301,0.25,28.95-0.54,43.27,1.45c11.09-13.77,21.8199-27.82,32.6699-41.78c14.1901-18.4,26.9701-38.04,43.55-54.46
		c26.9-27.85,57.6901-51.6,89.41-73.69c46.1699-32.11,95.5699-59.2,142.12-90.74c17.01-11.59,34.5699-22.42,50.8099-35.12
		c9.38-6.9,17.3501-15.49,26.8401-22.27c32.51-23.93,67.38-44.43,100.5399-67.42c14.11-10.03,28.77-19.65,40.79-32.23
		c5.26-5.3,7.87-12.41,11.6899-18.68c2.42-4.07,4.5601-8.31,7.0801-12.33c-4.37,8.19-7.48,16.96-11.54,25.3
		c-3.52,6.9-9.0699,12.45-14.52,17.83c-0.4399,6.7-3.9399,12.63-6.0499,18.9c-23.54,60.2401-47.15,120.46-70.64,180.72
		c-7.3201,19.04-15.27,37.86-21.54,57.29c-13.87,43.05-23.58,87.28-34.9299,131.03c-3.9,15.99-9.16,31.91-9.1101,48.54
		c-1.8999,13.71-0.3799,27.64-1.6599,41.4c-0.1801,2.14,0.1799,4.29,0.5599,6.4199c41.73,11.7401,83.26,25.2101,121.9701,44.9601
		c30.96,15.6899,59.9299,36.25,82.2,63.11c11.59,13.98,20.9399,29.8199,27.7,46.6799c0.4,17.25,0,34.54,0.01,51.8101
		c-1.1799,7.76-0.65,15.64-0.95,23.47c-0.41-0.02-1.25-0.0599-1.67-0.08c-0.89-6.8201-0.84-13.67-1.27-20.51
		c-1.4099-6.95-0.23-14.1-1.4199-21.0699c-0.9301-6.3,0.36-12.8401-1.53-19c-15.4301,7.22-31.63,12.62-47.54,18.6699
		c-18.3199,6.8101-36.77,13.26-55.22,19.67c-7.08,2.41-14.05,5.15-21.33,6.86c-23.6901,6.12-47.25,12.78-70.9501,18.86
		c-7.9399,2.42-16.24,3.62-23.89,6.91c-10.47,1.77-20.6599,4.85-30.96,7.39c-12.22,3.37-24.99,4.5399-36.95,8.9199
		c-20.62,5.2001-41.36,9.99-62.0701,14.85c-92.0399,21.2001-184.6899,40.0701-278.14,53.8c-29.7899,4.17-59.6,8.22-89.5499,10.95
		c-5.75,1.17-11.66,0.5801-17.41,1.77c-6.26,1.24-12.63,0.7001-18.9399,1.29c-6.4,1.38-13,0.4399-19.4501,1.36
		c-4.25,0.41-8.5499,0.1801-12.74,1.1c-7.05,0.6801-14.2-0.2999-21.1899,1.1001c-7.8201,0.1499-15.7101,0.4199-23.4701-0.67
		c-4.12-0.28-8.3099,0.24-12.36-0.6801c-6.21-1.45-12.63,0.1801-18.85-0.95c-5.45-0.91-10.89-1.75-16.42-1.63
		c-19.65-2.84-39.22-6.61-58.22-12.48c-2.39-0.89-5.19-0.0701-7.35-1.5701c-2.78-1.72-5.73-3.14-8.59-4.6899
		c7.48-0.92,14.84,0.74,22.29,1c9.16,1.92,18.66,1.09,27.89,2.64c9.4,0.4299,18.8301,0.1599,28.25,0.4099
		c10.1901,1.38,20.52,0.3501,30.78,0.8401c3.4301,0.45,6.5699-1.4301,10-1.16c5.33,0.26,10.73-0.2,15.99,0.91
		c3.66,0.48,7.38,0.22,11.0601-0.02c6.6-1.16,13.33-0.5601,20-0.74c4.7699,0.16,9.4199-1.1901,14.2-1.17
		c7.87-1.33,15.96,0.15,23.79-1.62c8.33-0.2,16.64-0.75,24.89-2.01c7.75-0.08,15.36-1.6599,23.09-2.12
		c85.5599-9.5399,170.51-24.73,254.83-42.2899c46.16-9.63,92.14-20.1001,137.99-31.14c6.41-1.5701,12.8101-3.2201,19.3-4.4601
		c6.02-0.13,11.9399-2.2899,16.6899-5.99c1.26,0.5,2.6001,1.12,4.02,0.7001c10.38-2.6901,20.77-5.3501,31.1901-7.89
		c5.35-1.0701,9.86-4.39,15.1499-5.7001c1.5601,0.17,3.1101,0.8201,4.7401,0.5901c23.45-6.2201,46.9399-12.3501,70.35-18.77
		c9.46-2.41,18.6699-5.75,28.26-7.67c39.0699-8.29,78.0699-16.9299,117.13-25.25c-0.15-4.2,0.12-8.4199-0.41-12.5699
		c-14.98-32.89-41.13-59.37-70.46-79.87C1796.73,1107.11,1746.61,1087.09,1695.83,1071.34c-4.72-1.6799-8.5399-5.1599-13.2999-6.74
		c-5.0901-2.25-10.8101-0.1699-15.99-1.91c-8.29-2.23-16.5601-4.5399-24.8501-6.72c-5.8199-1.39-10.7899-5.33-16.84-5.7999
		c-3.45-0.8201-7.01-0.52-10.46-1.1801c-44.37-10.96-88.9501-21.1-133.15-32.74c-24.47-6.66-48.98-13.5-72.48-23.12
		c-0.1-0.37-0.3-1.13-0.4-1.51c7.73,3.54,16.08,5.49,24.12,8.21c62.77,18.71,127.47,29.6099,191.1,44.81
		c0.0801-6.34,0.0801-12.7001-0.33-19.02c-1.17-6.48-0.38-13.09-1.08-19.6c-0.8201-5.66-0.24-11.4-0.8101-17.08
		c-1.15-5.91-0.65-11.96-0.9-17.94c0.1901-5.06-1.1799-9.99-0.98-15.05c0.14-4.35-0.9199-8.61-0.9-12.94
		c-0.09-4.82-0.09-9.65-0.9399-14.41c-0.17-7.56-1.11-15.0699-1.4501-22.62c-1.1499-5.19-0.2599-10.57-1.3899-15.75
		c-1.88-20.97-3.63-42.02-7.89-62.69c-1.8201-10.18-7.53-19.48-15.61-25.88c-13.4601-10.4-31.2201-14.25-47.9401-13.03
		c-40.74,24.97-80.64,51.65-116.9,82.87c-15.7799,13.52-30.7999,28.01-43.74,44.31c-11.46,14.6-22.0599,29.86-33.61,44.39
		c-5.74,7.85-12.39,15.05-17.62,23.25c5.38,1.66,11.05,1.94,16.54,3.12c19.72,3.71,39.4299,8.91,57.25,18.37
		c9.84,5.39,19.59,12.4,24.5599,22.79c3.73,7.24,3.65,16.23,0.13,23.54c-3.35,7.6899-9.38,13.78-15.6799,19.12
		c-16.23,12.6-35.37,20.64-54.49,27.71c-32.9601,11.6801-67.04,20.16-101.53,25.85c-11.35,1.52-22.75,3.5-34.26,2.5601
		c-3.97-0.5601-7.6901,0.8099-11.4,1.96c-7.88-0.0499-15.78,0.0901-23.65-0.21c-6.27-1.21-12.73-0.13-18.97-1.47
		c-6.96-0.5601-13.91-1.23-20.76-2.5601c-9.09-2.13-18.47-2.75-27.45-5.39c-51.16-12.65-98.28-38.61-139.47-71.12
		c-6.78-5.2-13.02-11.0599-19.92-16.08c-3.03-2.28-5.5-5.17-8.12-7.87c-36.54-33.58-69.21-71.14-99.43-110.44
		c-2.61-4.88-6.6-8.74-10.03-13.01c-36.17-48.16-70.78-97.46-105.2-146.88c-17.22-24.82-34.75-49.43-51.39-74.64
		c-22.3-33.38-45.0699-66.43-66.84-100.16c-20.13-30.82-40.48-61.51-60.32-92.53c-21.16-33.13-42.43-66.2-63.58-99.34
		c-35.14-55.58-70.27-111.16-105.43-166.72C354.98,158.81,318,97.51,280.76,36.37 M1819.47,585.48
		c-36.7899,30.97-77.38,57.02-114.5399,87.52c-8.1901,6.37-14.8,14.46-22.65,21.21c-21.5701,19.24-45.2101,36.06-69.75,51.28
		c-18.2101,11.61-36.5,23.07-54.9301,34.31c-3.14,1.94-6.61,3.55-8.89,6.56c10.9601-0.22,22.0801,1.27,32.2101,5.68
		c13.5599,5.65,25.34,17.12,28.8999,31.67c3.5601,12.92,5.02,26.28,7.0901,39.48c2.4199,20.93,4.87,41.86,6.58,62.85
		c0.16,9.69,2.17,19.2401,2.04,28.95c0.9099,8.32,1.77,16.67,1.86,25.06c-0.03,4.68,1.34,9.24,1.09,13.95
		c-0.1699,7.38,1.23,14.65,1.22,22.03c1.25,6.25,0.2001,12.6799,1.42,18.9299c0.51,3.6901,0.12,7.4301,0.5699,11.14
		c11.3401,3.62,23.17,5.8101,34.6801,8.99c3.59,0.89,7.1,2.28,10.85,2.4601c0.12-12.7001,0.04-25.42,0.55-38.11
		c0.95-5.12,0.36-10.36,1.33-15.47c1.23-17.79,7.75-34.58,11.8-51.8199c12.45-46.16,23.38-92.87,40.12-137.72
		c14.89-37.57,30.52-74.84,45.97-112.18c16.14-38.68,31.84-77.55,48.51-116.01c1.0699-2.66,2.91-5.05,3.3199-7.95
		C1824.9,579.13,1822.54,583.1,1819.47,585.48z"/>
	<path fill="#090808" d="M233.54,22.53c4.92-4.49,8.12-11.05,14.22-14.09c-0.7,1.4-1.49,2.74-2.38,4.02
		c-21.43,29.26-42.86,58.51-63.82,88.11c-18.61,26.31-36.94,52.84-53.9,80.25c-9.91,15.91-19.51,32.06-27.42,49.07
		c-9.25,19.99-15.74,41.13-21.32,62.41c-7.82,28.88-13.26,58.34-18.16,87.84c-2.92,19.56-5.91,39.11-7.69,58.8
		c-1.47,11.44-0.25,23.07-0.9,34.57c-0.98,5.98-0.21,12.07-0.97,18.06c-2.55-3.76-1.43-8.39-2.14-12.61
		c-0.5-2.99-0.4-6.04-0.79-9.04c-1.27-5.9-0.22-12-1.49-17.9c-0.47-7.68-0.22-15.4-0.04-23.08c1.36-7.21,0.15-14.63,1.47-21.83
		c1.83-25.8,4.99-51.49,9.38-76.99c5.13-29.19,11.86-58.19,22-86.08c2.9-8.66,6.67-16.98,10.58-25.21
		c10.19-19.79,21.82-38.81,34.21-57.29C157.48,112.74,194.53,66.71,233.54,22.53z"/>
	<path fill="#090808" d="M1636.13,22.2c5.54-4.03,10.5599-8.85,16.66-12.06c-4.3301,5.22-10,9.05-14.87,13.7
		c-16.7001,14.31-33.51,28.49-49.87,43.19c-13.91,12.77-28.6901,24.6-42.1001,37.92c-15.1,14.19-30.37,28.28-44.0299,43.89
		c-24.92,26.15-48.6001,53.44-72.67,80.36c-39.01,43.98-77.86,88.1-116.96,132c-24.29,29.42-46.42,60.55-68.49,91.65
		c-45.14,63.4-88.6001,127.96-132.8301,191.99c-22.52,33.3199-48.6,64.0099-74.37,94.81c-22.7599,26.23-45.42,52.56-69.34,77.75
		c5.87,7.5,13.12,13.78,19.51,20.8199c12.09,13.23,25.2,25.47,38.33,37.65c11.64,9.89,24.5701,18.13,37.9501,25.44
		c2.0699,1.19,4.4199,0.35,5.47-1.73c46.4-62.02,90.1799-125.93,134.53-189.41c21.9099-32.43,43.74-64.92,65.5699-97.4
		c21.11-32.31,42.3101-64.56,63.39-96.89c22.88-35.42,45.53-70.98,68.33-106.46c30.4401-47.93,60.6901-95.99,91.14-143.93
		c11.54-18.2,22.6-36.71,34.5601-54.65c21.6699-32.9,43.4299-65.74,65.11-98.64c20.49-30.92,40.8099-61.96,61.9-92.48
		c0.98-0.84,0.8099-3.29,2.35-3.2c0,0.25-0.01,0.75-0.01,1c-2.22,2.28-3.84,5.02-5.41,7.74c-11.8099,20.65-24.62,40.7-36.76,61.15
		c-29.1799,47.78-57.9099,95.84-87.0399,143.65c-43.3601,68.4-86.38,137.03-130.02,205.26c-22.16,34.44-44.03,69.07-66.48,103.32
		c-20,30.29-39.5901,60.87-59.8301,91c-22.39,33.03-44.26,66.41-67.03,99.17c-41.9099,60.1-83.59,120.39-127.46,179.09
		c40.97,20.4,84.3101,35.54,127.9501,49.1c5.6399,1.54,11.1,3.71,16.85,4.86c10.9-20.63,21.7799-41.28,33.5-61.47
		c9.4-15.62,18.14-31.81,30.25-45.56c25.3099-29.35,57.7-51.46,90.84-71.04c68.9399-39.85,143.17-69.13,215.74-101.48
		c52.9301-23.5,105.73-47.46,156.66-75.08c29.51-16.27,59.02-33.33,83.9-56.32c2.4299,2.25,4.72,4.65,6.9399,7.13
		c-12.61,13.09-28,23.08-43.1799,32.92c-37.0901,23.23-76.5,42.43-116.01,61.12c-35.51,16.49-71.3101,32.35-107.3201,47.71
		c-40,17.39-80.38,33.89-119.89,52.38c-33.74,15.91-67.22,32.64-98.6,52.89c-18.4299,12.16-36.54,25.08-52.14,40.79
		c-11.83,11.39-22.4299,24.13-30.74,38.33c-15.26,24.47-29.24,49.71-42.77,75.17c-1.33,2.48-2.38,5.17-4.22,7.34
		c-1.75-1.54-2.9-4.04-5.3199-4.53c-19.26-4.6299-38.17-10.59-56.9701-16.79c-30.58-10.25-60.85-21.72-89.74-36.12
		c-5.6699-1.39-9.88-5.57-15.0399-8.04c-16.9601-9.04-32.59-20.53-46.11-34.19c-14.79-13.17-28.37-27.61-42.3-41.66
		c-10.82-12.15-22.39-23.61-33.15-35.82c-29.03-32.09-57.43-64.78-84.73-98.36c-15.56-19.22-30.71-38.8-44.51-59.33
		c-51.77-75.13-102.77-150.8-156.3-224.69c-12-16.04-23.52-32.46-36.35-47.86c-7.08-9.14-15.1-17.48-22.63-26.24
		c-49.79-55.87-99.03-112.22-149.06-167.87c-13.17-14.2-26.35-28.39-39.43-42.67c-5.81-5.87-12.17-11.16-17.97-17.03
		c-16.91-16.82-34.98-32.38-52.88-48.12c-13.93-12.78-28.47-24.88-42.76-37.26c-2.43-2.31-6.17-3.87-6.24-7.74
		c1.55,0.72,2.99,1.62,4.32,2.69c20.68,16.61,41.54,32.99,61.75,50.16c20.25,16.33,39.18,34.19,58.68,51.4
		c4.59,4.38,8.83,9.13,13.16,13.76c31.12,31.64,60.64,64.77,90.86,97.25c35.02,39.28,70.31,78.31,104.77,118.09
		c21.9,26.8,41.55,55.32,61.41,83.65c43.4,62.46,85.46,125.85,128.09,188.84c13.79,21,28.38,41.48,44.01,61.15
		c36.45,46.22,75.01,90.72,114.64,134.22c7.15-6.25,13.09-13.75,19.42-20.8c26.24-29.55,51.79-59.7,76.67-90.41
		c10.2-13.11,20.71-25.99,30.36-39.52c12.34-16.9,23.63-34.53,35.4199-51.81c44.13-65.39,87.89-131.05,133.2401-195.62
		c11.5399-15.74,22.5599-31.89,34.72-47.16c10.9399-14.31,23.25-27.46,34.95-41.13c25.35-28.64,50.9-57.12,76.4-85.62
		c11.22-12.45,22.83-24.53,33.99-37.03c14.88-16.11,29.49-32.47,44.91-48.08c10.91-11.44,21.6899-23.02,33.1899-33.88
		c15.8201-13.79,30.89-28.43,47.25-41.59C1587.55,60.87,1611.8101,41.49,1636.13,22.2z"/>
	<path fill="#090808" d="M1670.24,18.43c3.8101,1.75,6.23,5.33,8.98,8.35c24.1801,26.93,47.4301,54.71,69.64,83.29
		c23.71,30.68,46.61,62.13,66.24,95.61c9.28,15.9,17.9501,32.27,23.87,49.75c15.0601,42.28,22.9,86.76,28.12,131.2
		c0.8301,10.47,2.5601,20.88,2.6,31.41c1.3201,6.92,0.5901,14,1.5801,20.96c0.1699,10,0.5699,20.06-0.65,30.01
		c0.2,5.7-1.15,11.27-1.1801,16.95c0.16,7.52-1.9299,14.81-2.61,22.26c-0.95-14.73,0.02-29.52-1.0499-44.24
		c-0.15-5.36,0.21-10.78-0.8301-16.06c-2.1599-21.97-5.4099-43.83-8.8999-65.64c-4.25-24.47-8.78-48.92-15.0701-72.96
		c-5.0599-19.83-10.71-39.57-18.4399-58.55c-8.89-21.51-20.6801-41.66-33.05-61.32c-34.65-55.13-73.48-107.47-111.8099-160.05
		C1675.1,25.81,1672.12,22.46,1670.24,18.43z"/>
	<path fill="#090808" d="M62.5,522.2c3.67,7.79,8.36,15.07,12.32,22.73c3.04,5.74,7.47,10.62,12.33,14.87
		c12.75,11.15,26.74,20.74,40.68,30.31c18.95,12.75,38.18,25.07,57.28,37.6c16,10.54,32.06,21.11,46.84,33.33
		c13.62,12.6,28.65,23.54,44.12,33.7401c18.74,12.36,37.18,25.18,56.27,37c16.99,10.75,34.17,21.18,51.27,31.7599
		c30.89,18.97,61.27,38.84,90.07,60.87c21.75,16.65,42.63,34.51,61.37,54.52c10.1,10.12,18.52,21.72,26.97,33.2
		c13.76,18.79,28.31,36.98,42.56,55.4c5.58,7.3799,11.94,14.25,16.19,22.56c3.03,5.75,8.62,9.43,12.34,14.67
		c14.73,20.09,29.06,40.48,42.58,61.41c11.08,17.9299,22.86,35.48,32.77,54.11c2.73,5.23,6.02,10.1599,8.32,15.61
		c6.31,13.79,12.9399,27.45,18.5099,41.5699c14.38,35.04,25.63,71.3501,41.91,105.6001c9.68,19.96,21.7,38.8099,36.08,55.72
		c12.5099,14.51,24.5099,29.4399,36.91,44.0499c5.06,5.5,9.37,11.88,15.85,15.89c7.95,4.55,14.89,10.6,22.65,15.4501
		c11.12,6.6599,23.3,11.24,35.17,16.33c9.56,3.9399,18.94,8.38,28.8,11.58c5.77,2.01,11.9301,2.37,17.9,3.5701
		c16.13,3.13,32.34,5.8099,48.47,8.98c6.6599,1.53,13.5599,0.42,20.27,1.67c17.22,0.5499,34.46,0.3899,51.6899,0.38
		c10.3201-0.3101,20.6901,0.36,30.96-0.8601c52.14-2.25,104.02-8.58,155.7001-15.9299c94.41-14.0701,188-33.1801,280.96-54.77
		c21.79-5,43.4-10.78,65.23-15.64c11.26-2.21,22.28-6.09,33.87-6.23c-0.46-0.47-0.8999-0.9301-1.3199-1.37
		c4.17-0.28,8.36-0.09,12.54-0.38c4.7899-0.72,8.85-4.25,13.86-3.99c6.6799,0.08,12.2-4.25,18.5699-5.58
		c57.37-13.39,114.59-27.4301,171.62-42.1801c5.8101-1.3,11.4501-3.9301,17.54-3.39c-6.35,2.67-13,4.52-19.49,6.77
		c-52.03,17.1-104.3301,33.37-156.9,48.6801c-11.52,2.1899-22.63,5.96-33.9301,9.0099c-15.1499,4.51-30.61,8.0601-45.46,13.53
		c-25.49,7.25-51.45,12.62-77.22,18.76c-44.03,10.17-88.2001,19.76-132.52,28.58c-89.9301,17.7001-180.58,32.67-271.99,39.75
		c-7.61-0.1-15.09,1.4501-22.7,1.26c-7.8,0.8201-15.63,0.7201-23.4501,0.9701c-9.91,1.25-19.91,0.58-29.86,0.7999
		c-9.64-0.21-19.3199,0.4601-28.9-0.78c-22.91-0.7899-45.8-2.7599-68.34-7.11c-3.61-0.46-6.88,1.5901-10.26,2.49
		c-33.41,10.7301-68.67,13.5901-103.49,15.3501c-11.34,0.0499-22.67,0.1599-34.01,0.08c-10.9-0.28-21.86,0.42-32.71-0.9
		c-8.46-0.08-16.84-1.2899-25.31-1.1899c-9.94-1.1901-19.99-1.3401-29.92-2.65c-12.07-0.61-24.03-2.45-36.06-3.4301
		c-136.16-15.6799-270.42-44.3999-403.62-76.1699c-8.68-1.8-17.01-5.2201-25.85-6.12c-0.13,3.13-0.19,6.2799-0.25,9.4399
		c-5.78,0.3201-11.46-1.13-17.24-0.99c-4.43,0.13-8.77-0.9299-13.19-1.04c-10.21-0.4199-20.35-1.83-30.57-2.0599
		c0.04-7.64,0.21-15.29,1.26-22.87c-18.25-5.85-36.8-10.76-55.1-16.47c-24.97-7.5901-49.88-15.3301-74.77-23.17
		c-19.45-6.41-39.11-12.27-58.32-19.4c2.14-0.0699,4.32-0.25,6.42,0.25c57.99,15.35,116.32,29.37,174.69,43.23
		c2.69,0.7201,5.49,0.78,8.26,0.8201c-0.1-0.8101-0.29-2.42-0.39-3.23c-2.23-0.38-4.5-0.38-6.75-0.4601
		c-0.33-7.71-0.01-15.4299,0.8-23.09c-0.07-9.16,1.45-18.21,1.22-27.37c-24.27-6.6801-48.68-12.89-72.94-19.6
		c-19.94-4.49-38.9-12.24-58.21-18.76C61,1261.24,38.58,1253.09,16.4,1244.34c-3.09-1.0499-6.03-3.47-9.42-2.77
		c-1.23,1.5-0.95,3.66-1.27,5.51c-0.6,11.5601-1.04,23.12-2.13,34.64c-0.08,5.27-0.07,10.5801-1.47,15.72
		c-0.76-1.72-1.49-3.4299-2.11-5.1699v-67.67c0.87-1.88,1.85-3.6799,2.71-5.5399c8.47-19.5801,21-37.25,35.82-52.53
		c30.76-31.52,70.36-52.6901,110.94-68.8c24.52-9.91,49.86-17.53,75.11-25.2999c-0.21-27.4801,1.03-55.0701-2.07-82.4301
		c-0.74-8.46-3.31-16.61-5.24-24.85c-11.08-45.13-20.6-90.6801-33.87-135.25c-6.51-22-15.21-43.25-23.2-64.73
		c-8.09-21.81-16.06-43.66-24.15-65.46c-14.31-39.16-29.06-78.16-42.98-117.46c-1.37-3.88-2.97-7.7-3.78-11.75
		c-0.51-1.95-0.49-4.21-2.04-5.7c-3.89-4.42-8.44-8.32-11.47-13.44c-4.99-8.44-7.8-17.94-12.4-26.58
		C62.91,523.97,62.62,523.11,62.5,522.2 M89.69,569.82c11.62,27.63,22.03,55.77,33.09,83.64c15.57,39.5,30.96,79.08,46.51,118.6
		c6.42,16.65,13.36,33.13,18.81,50.14c14.03,43.33,23.9,87.83,35.37,131.86c2.85,12.14,6.92,24.04,8.18,36.5
		c1.34,5.73,0.34,11.67,1.51,17.42c0.83,10.98,0.01,22.04,1.08,33.01c-0.02,7.67,0.16,15.35-0.05,23.02
		c-1.11,8.62-0.22,17.33-0.48,25.99c-0.11,14-0.27,28-0.46,42.01c-1.61,10.59,0.04,21.38-1.52,31.97
		c-0.33,6.1801-0.18,12.37-0.43,18.5601c-1.49,12.01-0.05,24.21-1.72,36.21c-0.27,5.08-0.05,10.1801-0.4,15.26
		c-1.1,7.29-0.34,14.71-1.1,22.03c-1.03,5.59-0.13,11.33-1.09,16.9299c-0.76,4.29,0.06,8.77-1.26,12.99
		c-1.13,4.17-2.19,8.39-2.34,12.74c-0.96,4.0601-2.43,8.0701-1.98,12.3401c-0.6,5.61,3.87,10.33,2.91,15.95
		c-1.1,6.79-0.84,13.7-1.13,20.5601c5.54,1.58,11.36,0.5199,17.02,1.1799c7.21,1.27,14.59,0.29,21.81,1.48
		c6.56,0.3101,13.12,0.39,19.68,0.5c1.49-10.14,0.36-20.5,0.96-30.71c1.29-7.28,0.37-14.71,0.72-22.05
		c0.32-8.6599-0.33-17.38,0.86-25.98c0.53-14.65-0.17-29.36,1.13-43.96c0.33-9.71-0.25-19.48,0.96-29.13
		c0.22-8.63,0.13-17.27,0.37-25.89c1.56-9.9399,0.27-20.0599,1.45-30.03c0.39-7.99,0.21-15.99,0.54-23.97
		c1.64-10.9299,0.06-22.0599,1.61-32.98c0.28-7.51,0.26-15.02,0.57-22.52c-1.04-0.84-2.07-1.65-3.11-2.4299
		c-0.08-1.7401-0.12-3.4701-0.14-5.1901c1.28-0.16,2.57-0.3,3.86-0.4399c0.18-4.8201-0.05-9.66,0.36-14.4701
		c1.23-6.25,0.43-12.6499,1.15-18.9399c0.9-8.28-0.04-16.68,1.31-24.91c0.52-5.47-0.15-11.01,0.85-16.44
		c0.39-2.88,0.18-5.8,0.5-8.68c1.25-6.94,0.31-14.03,1.11-21.01c1.22-6.61,0.37-13.38,1.24-20.02c0.67-4.29,0.21-8.67,0.9-12.95
		c1.02-4.95,0.16-10.07,1.22-15.01c0.95-11.75,1.83-23.49,2.83-35.23c2.31-18.95,3.49-38.16,8.47-56.68
		c4.37-13.85,16.26-24.27,29.63-29.23c9.35-3.9,19.52-4.65,29.5-5.5c-1.37-1.25-2.81-2.4-4.38-3.35
		c-16.45-9.92-32.75-20.09-48.99-30.34c-17.17-10.98-34.54-21.7-50.82-33.99c-14.18-10.68-28.24-21.65-40.5-34.54
		c-14.54-13.97-30.87-25.88-46.96-37.96c-16.3-12.07-32.73-23.95-48.92-36.16c-13.48-10.3-27.18-20.46-39.39-32.28
		C90.36,568.26,89.92,569.3,89.69,569.82 M333.77,788.68c-9.69,5.98-17.58,15.63-19.72,27c-2.7,12.66-3.93,25.59-4.99,38.46
		c-0.91,7.34-1.56,14.7-1.69,22.11c-1.48,7.83-0.44,15.85-1.54,23.71c-0.33,3-0.14,6.04-0.54,9.04c-1.45,7.9-0.06,16.04-1.39,23.96
		c-0.7,6.65-0.04,13.4-1.02,20.03c-0.78,9.95,0.13,19.99-1.24,29.89c-0.5,7.69,0.19,15.45-0.89,23.11c-0.55,9,0.2,18.08-1.06,27.03
		c-0.16,6.91-0.26,13.83-0.17,20.75c65.04-15.5601,131.29-26.4401,195.19-46.54c4.87-1.25,9.47-4.03,14.62-3.82
		c-12.93,5.38-26.31,9.65-39.68,13.81c-53.41,15.8301-107.9,27.5801-161.94,40.98c-2.95,0.76-6.09,1.0901-8.76,2.6801
		c-0.97,12.64,0.03,25.45-1.19,38.11c-0.19,15-0.38,30.01-0.52,45.01c-1.37,10.5601-0.57,21.24-1,31.86
		c-1.18,8.98-0.58,18.09-0.89,27.13c0.25,4.6801-0.87,9.28-0.75,13.97c-0.04,9.3401-0.17,18.6901-0.24,28.05
		c-0.27,6.98,0.39,14.03-0.79,20.96c-0.38,8.67-0.09,17.36-0.44,26.04c-0.6,5.71-0.4,11.47-0.44,17.22
		c5.62,1.67,11.39,2.78,17.05,4.3301c129.07,30.95,259.32,58.37,391.19,73.8099c7.62,0.16,15.06,2.24,22.69,2.2
		c7.46,1.05,14.98,1.66,22.5,2.0701c5.23,1.1899,10.64,0.51,15.91,1.38c2.98,0.49,6.02,0.27,9.02,0.5699
		c8.57,1.55,17.36,0.11,25.93,1.6801c14.39,0.24,28.79,0.6699,43.18,0.22c-10.79-11.48-21.18-23.3099-31.3-35.38
		c-11.66-13.22-22.81-26.99-32.03-42.0499c-12.92-20.75-22.85-43.1901-31.6-65.9701c-14.75-38.2-27.6-77.34-46.9-113.58
		c-3.67-0.87-7.42-1.08-11.17-1.08c-9.75-0.6901-19.39-2.3601-29.1-3.4c-34.94-6.2101-69.58-14.66-102.94-26.87
		c-17.61-6.8-35.29-14.28-50.37-25.8301c-7.84-6.5199-15.48-14.2799-18.24-24.39c-0.45-4.9199-0.62-9.96,0.13-14.85
		c4.18-12.5699,15.36-21.05,26.6-27.08c21.73-11.32,45.97-16.75,70.05-20.33c6.11-1.24,12.37-1.08,18.47-2.39
		c-11.28-15.34-23.44-30.0099-34.92-45.2c-14.5-18.16-27.09-37.86-42.95-54.9c-18.3-19.79-38.9-37.31-60.24-53.71
		c-28.36-21.59-58.09-41.37-88.59-59.76C360.82,778.36,346.13,781.38,333.77,788.68 M544.29,1009.98
		c-12.92,4.62-25.84,10.04-36.7,18.6c-5.54,4.8201-11.31,10.7201-12.1,18.38c-0.98,7.65,3.7,14.54,8.94,19.62
		c6.97,7.41,15.79,12.7101,24.61,17.62c18.02,9.5701,37.38,16.29,56.85,22.2301c24.9,7.3199,50.2,13.3999,75.85,17.47
		c10.06,1.28,20.12,3.13,30.32,2.77c-9.35-18.03-20.92-34.78-31.52-52.0801c-13.28-20.5699-27.4-40.59-41.9-60.3199
		c-4.56-5.87-8.62-12.16-13.69-17.61C584.41,999.07,563.97,1003.46,544.29,1009.98 M219.2,1082.51
		c-45.05,14.28-89.56,31.66-129.64,57.01c-16.4,10.13-31.7,22.0499-45.53,35.49c-15.15,15.17-28.05,32.72-37.08,52.22
		c-0.74,2.5-0.31,5.2001-0.5,7.79c0.06,1.7999-0.52,4.1799,1.57,5.1c37.49,8.41,75.11,16.3199,112.66,24.5
		c10.23,1.8101,20.04,5.3,30.06,7.98c21.62,5.79,43.2,11.7101,64.89,17.23c0.8-6.22-0.52-12.51-0.08-18.6499
		c0.22,1.95-0.43,4.1399,0.94,5.8199c0.08-2.6801-0.04-5.36,0.4-7.99c1.24-6.9301,0.06-14.04,1.26-20.97
		c0.64-5.65,0.02-11.39,1.07-16.99c0.46-7.3601,0.09-14.75,0.63-22.0901c1.21-6.25,0.45-12.6499,1.08-18.9399
		c0.97-7.66-0.06-15.4501,1.32-23.05c0.55-10.26-0.23-20.59,1.09-30.7899c-0.35-5.78,1.12-11.42,0.88-17.17
		c0.05-12.62,0.25-25.23,0.26-37.84C222.69,1081.5,220.92,1081.9301,219.2,1082.51 M291.78,1327.5
		c-0.08,11.33-0.09,22.67-0.26,34.02c-3.64-0.0601-7.27-0.1801-10.91-0.05c-0.04,5.23-0.61,10.4601-0.2,15.6901
		c9.51,0.95,18.67,3.9199,28.01,5.84c69.63,17.25,139.72,32.71,210.18,46.24c80.46,15.39,161.52,28.27,243.15,34.77
		c5.06,0.95,10.27,0.13,15.34,1.1c5.28,0.65,10.64,0.1801,15.89,1.16c22.67,0.5499,45.35,0.64,68.02,0.46
		c8.64-0.3099,17.36,0.26,25.95-0.98c18.96-1.2,38.01-3.3101,56.51-7.76c-1.37-0.99-2.7-1.95-4.28-2.47
		c-8.39-3.15-16.55-6.86-24.83-10.27c-14.14-5.92-28.55-11.64-41.16-20.51c-5.59-3.5-10.25-8.22-15.56-12.05
		c-20.72-0.0399-41.47,0.1201-62.19-0.4099c-7.43-1.25-15.03-0.24-22.46-1.5c-11.71-0.37-23.34-1.75-35.03-2.4601
		c-5.24-1.22-10.68-0.3999-15.93-1.59c-48.36-4.64-96.49-11.6799-144.44-19.64C484.74,1371.3,392.64,1351.42,301.15,1329.17
		C298.05,1328.47,295.01,1327.3101,291.78,1327.5z"/>
	<path fill="#090808" d="M80.08,548c2.16-2.39,4.11-5.15,6.89-6.86c2.81,0.7,4.36,3.63,6.6,5.33c14.58,12.73,30.9,23.29,47.36,33.41
		c35.25,21.02,72,39.38,109.09,56.88c36.46,17.18,73.32,33.48,110.24,49.64c40.75,17.92,81.85,35.13,121.84,54.72
		c33.26,16.41,66.25,33.7,96.71,54.97c25.88,17.95,50.2,39.02,68.08,65.17c11.27,17.55,21.51,35.73,31.68,53.93
		c9.39,17.56,19.02,35.01,27.44,53.07c18.4,35.06,34.31,71.36,50.57,107.45c15.57,34.8501,31.84,69.37,48.83,103.5601
		c10.35,20.9399,20.89,41.7999,32.1201,62.28c9.93,17.99,20.09,35.9299,32.37,52.45c9.31,12.63,16.37,26.75,25.67,39.39
		c6.88,9.63,17.1,16.64,28.42,20.02c6.55,2.35,13.53,2.87,20.22,4.63c-3.38,0.59-6.86,0.5399-10.15-0.48
		c-10.98-1.9901-22.04-5.6001-30.63-12.9801c-11.85-9.96-18.64-24.1699-27.07-36.83c-6.49-10.37-14.34-19.8101-20.83-30.17
		c-19.54-31.0299-36.29-63.7-52.88-96.37c-7.01-14.0699-14.11-28.09-20.79-42.3199c-2.15-4.99-6.25-8.91-7.8-14.1901
		c-1.53-6.73-5.32-12.6-8.03-18.88c-16.48-34.9099-31.8101-70.36-48.97-104.9399c-4.02-8.63-8.66-16.95-12.47-25.68
		c-15.84-29.79-31.36-59.82-48.91-88.68c-6.6-10.7-12.77-21.72-20.69-31.52c-16.57-21.1-37.63-38.15-59.6-53.33
		c-30.36-20.72-63.02-37.81-96.12-53.7c-37.09-17.9-75.13-33.72-112.95-49.97c-38.4-16.42-76.74-33-114.68-50.45
		c-34.95-16.14-69.64-32.92-103.19-51.84c-18.27-10.38-36.31-21.31-52.91-34.2401C90.17,557.24,84.8,552.97,80.08,548z"/>
</g>
</svg>
